<?xml version="1.0" standalone="no"?><!DOCTYPE svg PUBLIC "-//W3C//DTD SVG 1.1//EN" "http://www.w3.org/Graphics/SVG/1.1/DTD/svg11.dtd"><svg t="1611306534800" class="icon" viewBox="0 0 1024 1024" version="1.1" xmlns="http://www.w3.org/2000/svg" p-id="4065" xmlns:xlink="http://www.w3.org/1999/xlink" width="60" height="60"><defs><style type="text/css"></style></defs><path d="M387.217337 968.611777a114.141576 55.388223 0 1 0 228.283151 0 114.141576 55.388223 0 1 0-228.283151 0Z" fill="#727171" p-id="4066"></path><path d="M501.358913 977.433875c19.826983 0 42.38245-5.911715 48.385114-16.82565V254.658495H452.973799v705.94973c5.547917 10.732037 28.558131 16.825651 48.385114 16.82565z" fill="#9FA0A0" p-id="4067"></path><path d="M512 251.566214m-251.566214 0a251.566214 251.566214 0 1 0 503.132428 0 251.566214 251.566214 0 1 0-503.132428 0Z" fill="#C30D23" p-id="4068"></path><path d="M434.874856 134.787104m-57.57101 0a57.57101 57.57101 0 1 0 115.14202 0 57.57101 57.57101 0 1 0-115.14202 0Z" fill="#FFFFFF" p-id="4069"></path></svg>