<?xml version="1.0" standalone="no"?><!DOCTYPE svg PUBLIC "-//W3C//DTD SVG 1.1//EN" "http://www.w3.org/Graphics/SVG/1.1/DTD/svg11.dtd"><svg t="1609843166733" class="icon" viewBox="0 0 1024 1024" version="1.1" xmlns="http://www.w3.org/2000/svg" p-id="7567" xmlns:xlink="http://www.w3.org/1999/xlink" width="60" height="60"><defs><style type="text/css"></style></defs><path d="M494 808.9l-160.8-0.1c-24.9 0-45.2-19.9-45.2-44.4V335c0-24.5 20.3-44.4 45.2-44.4h16.9c9.4 0 17 7.6 17 17s-7.6 17-17 17h-16.9c-6.2 0-11.2 4.6-11.2 10.4v429.5c0 5.7 5 10.4 11.2 10.4l160.8 0.1c9.4 0 17 7.6 17 17 0 9.3-7.6 16.9-17 16.9z" fill="#F21D40" p-id="7568"></path><path d="M591.8 142.5c7 0 12.6 5.1 12.6 11.3v5.5c0 38.2 31.3 69.3 69.7 69.3h107.5c16.1 0 29.2 12.4 29.2 27.6V845c0 15.2-13.1 27.6-29.2 27.6H248.4c-16.1 0-29.2-12.4-29.2-27.6V256.2c0-15.2 13.1-27.6 29.2-27.6h107.5c38.4 0 69.7-31.1 69.7-69.3v-5.5c0-6.3 5.7-11.3 12.6-11.3h153.6m0-50H438.2c-34.6 0-62.6 27.5-62.6 61.3v5.5c0 10.7-8.8 19.3-19.7 19.3H248.4c-43.7 0-79.2 34.7-79.2 77.6V845c0 42.8 35.4 77.6 79.2 77.6h533.3c43.7 0 79.2-34.7 79.2-77.6V256.2c0-42.8-35.4-77.6-79.2-77.6H674.2c-10.9 0-19.7-8.6-19.7-19.3v-5.5c0-33.8-28.1-61.3-62.7-61.3z" fill="#1A1A1A" p-id="7569"></path></svg>